{
    "asset" : {
        "generator" : "Khronos glTF Blender I/O v3.2.43",
        "version" : "2.0"
    },
    "scene" : 0,
    "scenes" : [
        {
            "name" : "Scene",
            "nodes" : [
                8
            ]
        }
    ],
    "nodes" : [
        {
            "mesh" : 0,
            "name" : "MagneticEncoder",
            "translation" : [
                0.6591147184371948,
                0.2099657505750656,
                0.1819705069065094
            ]
        },
        {
            "mesh" : 1,
            "name" : "Servo",
            "translation" : [
                -0.739241361618042,
                0.6976807713508606,
                -0.2472582906484604
            ]
        },
        {
            "mesh" : 2,
            "name" : "ServoShaft"
        },
        {
            "children" : [
                2
            ],
            "mesh" : 3,
            "name" : "ServoGear",
            "translation" : [
                -0.7392414212226868,
                1.0976613759994507,
                0.09472382068634033
            ]
        },
        {
            "mesh" : 4,
            "name" : "Valve",
            "translation" : [
                0.6591147184371948,
                0.2099657505750656,
                0.1819705069065094
            ]
        },
        {
            "mesh" : 5,
            "name" : "ValveBall"
        },
        {
            "children" : [
                5
            ],
            "mesh" : 6,
            "name" : "ValveShaft",
            "translation" : [
                0,
                -0.8899999260902405,
                0
            ]
        },
        {
            "children" : [
                6
            ],
            "mesh" : 7,
            "name" : "ValveGear",
            "translation" : [
                0.6591147184371948,
                1.0999656915664673,
                0.1819705069065094
            ]
        },
        {
            "children" : [
                0,
                1,
                3,
                4,
                7
            ],
            "mesh" : 8,
            "name" : "ValveServoMount"
        }
    ],
    "materials" : [
        {
            "doubleSided" : true,
            "name" : "BlackPLA",
            "pbrMetallicRoughness" : {}
        },
        {
            "doubleSided" : true,
            "name" : "BrushedRedMetal",
            "pbrMetallicRoughness" : {}
        },
        {
            "doubleSided" : true,
            "name" : "Metal",
            "pbrMetallicRoughness" : {}
        },
        {
            "doubleSided" : true,
            "name" : "Brass",
            "pbrMetallicRoughness" : {}
        },
        {
            "doubleSided" : true,
            "name" : "OrangePLA",
            "pbrMetallicRoughness" : {}
        }
    ],
    "meshes" : [
        {
            "name" : "Cube.004",
            "primitives" : [
                {
                    "attributes" : {
                        "POSITION" : 0,
                        "NORMAL" : 1,
                        "TEXCOORD_0" : 2
                    },
                    "indices" : 3
                }
            ]
        },
        {
            "name" : "Cube.003",
            "primitives" : [
                {
                    "attributes" : {
                        "POSITION" : 4,
                        "NORMAL" : 5,
                        "TEXCOORD_0" : 6
                    },
                    "indices" : 7,
                    "material" : 0
                },
                {
                    "attributes" : {
                        "POSITION" : 8,
                        "NORMAL" : 9,
                        "TEXCOORD_0" : 10
                    },
                    "indices" : 11,
                    "material" : 1
                }
            ]
        },
        {
            "name" : "Cylinder.007",
            "primitives" : [
                {
                    "attributes" : {
                        "POSITION" : 12,
                        "NORMAL" : 13,
                        "TEXCOORD_0" : 14
                    },
                    "indices" : 15,
                    "material" : 2
                }
            ]
        },
        {
            "name" : "Gear",
            "primitives" : [
                {
                    "attributes" : {
                        "POSITION" : 16,
                        "NORMAL" : 17
                    },
                    "indices" : 18,
                    "material" : 3
                }
            ]
        },
        {
            "name" : "Cylinder.006",
            "primitives" : [
                {
                    "attributes" : {
                        "POSITION" : 19,
                        "NORMAL" : 20,
                        "TEXCOORD_0" : 21
                    },
                    "indices" : 22,
                    "material" : 2
                }
            ]
        },
        {
            "name" : "Sphere",
            "primitives" : [
                {
                    "attributes" : {
                        "POSITION" : 23,
                        "NORMAL" : 24,
                        "TEXCOORD_0" : 25
                    },
                    "indices" : 26,
                    "material" : 2
                }
            ]
        },
        {
            "name" : "Cylinder.009",
            "primitives" : [
                {
                    "attributes" : {
                        "POSITION" : 27,
                        "NORMAL" : 28,
                        "TEXCOORD_0" : 29
                    },
                    "indices" : 30,
                    "material" : 2
                }
            ]
        },
        {
            "name" : "Gear.001",
            "primitives" : [
                {
                    "attributes" : {
                        "POSITION" : 31,
                        "NORMAL" : 32
                    },
                    "indices" : 33,
                    "material" : 0
                }
            ]
        },
        {
            "name" : "servo_valve_mount",
            "primitives" : [
                {
                    "attributes" : {
                        "POSITION" : 34,
                        "NORMAL" : 35
                    },
                    "indices" : 36,
                    "material" : 4
                }
            ]
        }
    ],
    "accessors" : [
        {
            "bufferView" : 0,
            "componentType" : 5126,
            "count" : 48,
            "max" : [
                0.55832839012146,
                1.5310704708099365,
                0.5583283305168152
            ],
            "min" : [
                -0.55832839012146,
                1.3855724334716797,
                -0.55832839012146
            ],
            "type" : "VEC3"
        },
        {
            "bufferView" : 1,
            "componentType" : 5126,
            "count" : 48,
            "type" : "VEC3"
        },
        {
            "bufferView" : 2,
            "componentType" : 5126,
            "count" : 48,
            "type" : "VEC2"
        },
        {
            "bufferView" : 3,
            "componentType" : 5123,
            "count" : 72,
            "type" : "SCALAR"
        },
        {
            "bufferView" : 4,
            "componentType" : 5126,
            "count" : 900,
            "max" : [
                0.4145704209804535,
                0.15059152245521545,
                0.9634653925895691
            ],
            "min" : [
                -0.4145704507827759,
                -0.2312270700931549,
                -0.9634653329849243
            ],
            "type" : "VEC3"
        },
        {
            "bufferView" : 5,
            "componentType" : 5126,
            "count" : 900,
            "type" : "VEC3"
        },
        {
            "bufferView" : 6,
            "componentType" : 5126,
            "count" : 900,
            "type" : "VEC2"
        },
        {
            "bufferView" : 7,
            "componentType" : 5123,
            "count" : 1770,
            "type" : "SCALAR"
        },
        {
            "bufferView" : 8,
            "componentType" : 5126,
            "count" : 20,
            "max" : [
                0.4145704209804535,
                -0.2312270700931549,
                0.8131381273269653
            ],
            "min" : [
                -0.4145704507827759,
                -1.3212409019470215,
                -0.8131381273269653
            ],
            "type" : "VEC3"
        },
        {
            "bufferView" : 9,
            "componentType" : 5126,
            "count" : 20,
            "type" : "VEC3"
        },
        {
            "bufferView" : 10,
            "componentType" : 5126,
            "count" : 20,
            "type" : "VEC2"
        },
        {
            "bufferView" : 11,
            "componentType" : 5123,
            "count" : 30,
            "type" : "SCALAR"
        },
        {
            "bufferView" : 12,
            "componentType" : 5126,
            "count" : 488,
            "max" : [
                0.12835747003555298,
                0.2635960876941681,
                0.12835745513439178
            ],
            "min" : [
                -0.12835751473903656,
                -0.32624709606170654,
                -0.12835754454135895
            ],
            "type" : "VEC3"
        },
        {
            "bufferView" : 13,
            "componentType" : 5126,
            "count" : 488,
            "type" : "VEC3"
        },
        {
            "bufferView" : 14,
            "componentType" : 5126,
            "count" : 488,
            "type" : "VEC2"
        },
        {
            "bufferView" : 15,
            "componentType" : 5123,
            "count" : 828,
            "type" : "SCALAR"
        },
        {
            "bufferView" : 16,
            "componentType" : 5126,
            "count" : 2052,
            "max" : [
                0.33714479207992554,
                0.1300000101327896,
                0.33714479207992554
            ],
            "min" : [
                -0.33714479207992554,
                -0.1300000101327896,
                -0.33714479207992554
            ],
            "type" : "VEC3"
        },
        {
            "bufferView" : 17,
            "componentType" : 5126,
            "count" : 2052,
            "type" : "VEC3"
        },
        {
            "bufferView" : 18,
            "componentType" : 5123,
            "count" : 3444,
            "type" : "SCALAR"
        },
        {
            "bufferView" : 19,
            "componentType" : 5126,
            "count" : 1004,
            "max" : [
                0.668889045715332,
                0.6688891053199768,
                1.2179087400436401
            ],
            "min" : [
                -0.6688891053199768,
                -0.668889045715332,
                -1.2179089784622192
            ],
            "type" : "VEC3"
        },
        {
            "bufferView" : 20,
            "componentType" : 5126,
            "count" : 1004,
            "type" : "VEC3"
        },
        {
            "bufferView" : 21,
            "componentType" : 5126,
            "count" : 1004,
            "type" : "VEC2"
        },
        {
            "bufferView" : 22,
            "componentType" : 5123,
            "count" : 1728,
            "type" : "SCALAR"
        },
        {
            "bufferView" : 23,
            "componentType" : 5126,
            "count" : 1984,
            "max" : [
                0.4136607348918915,
                0.4136606752872467,
                0.3007669746875763
            ],
            "min" : [
                -0.41365984082221985,
                -0.41366031765937805,
                -0.30076685547828674
            ],
            "type" : "VEC3"
        },
        {
            "bufferView" : 24,
            "componentType" : 5126,
            "count" : 1984,
            "type" : "VEC3"
        },
        {
            "bufferView" : 25,
            "componentType" : 5126,
            "count" : 1984,
            "type" : "VEC2"
        },
        {
            "bufferView" : 26,
            "componentType" : 5123,
            "count" : 3072,
            "type" : "SCALAR"
        },
        {
            "bufferView" : 27,
            "componentType" : 5126,
            "count" : 240,
            "max" : [
                0.10298075526952744,
                1.257535696029663,
                0.17616130411624908
            ],
            "min" : [
                -0.10298068821430206,
                0.28559836745262146,
                -0.17616136372089386
            ],
            "type" : "VEC3"
        },
        {
            "bufferView" : 28,
            "componentType" : 5126,
            "count" : 240,
            "type" : "VEC3"
        },
        {
            "bufferView" : 29,
            "componentType" : 5126,
            "count" : 240,
            "type" : "VEC2"
        },
        {
            "bufferView" : 30,
            "componentType" : 5123,
            "count" : 468,
            "type" : "SCALAR"
        },
        {
            "bufferView" : 31,
            "componentType" : 5126,
            "count" : 4991,
            "max" : [
                1.1298465728759766,
                0.1300000101327896,
                1.129995584487915
            ],
            "min" : [
                -1.1298465728759766,
                -0.1300000101327896,
                -1.129995584487915
            ],
            "type" : "VEC3"
        },
        {
            "bufferView" : 32,
            "componentType" : 5126,
            "count" : 4991,
            "type" : "VEC3"
        },
        {
            "bufferView" : 33,
            "componentType" : 5123,
            "count" : 9060,
            "type" : "SCALAR"
        },
        {
            "bufferView" : 34,
            "componentType" : 5126,
            "count" : 3967,
            "max" : [
                1.5207529067993164,
                0.5066020488739014,
                1.4282970428466797
            ],
            "min" : [
                -1.358083724975586,
                -0.684150218963623,
                -1.5079421997070312
            ],
            "type" : "VEC3"
        },
        {
            "bufferView" : 35,
            "componentType" : 5126,
            "count" : 3967,
            "type" : "VEC3"
        },
        {
            "bufferView" : 36,
            "componentType" : 5123,
            "count" : 4764,
            "type" : "SCALAR"
        }
    ],
    "bufferViews" : [
        {
            "buffer" : 0,
            "byteLength" : 576,
            "byteOffset" : 0
        },
        {
            "buffer" : 0,
            "byteLength" : 576,
            "byteOffset" : 576
        },
        {
            "buffer" : 0,
            "byteLength" : 384,
            "byteOffset" : 1152
        },
        {
            "buffer" : 0,
            "byteLength" : 144,
            "byteOffset" : 1536
        },
        {
            "buffer" : 0,
            "byteLength" : 10800,
            "byteOffset" : 1680
        },
        {
            "buffer" : 0,
            "byteLength" : 10800,
            "byteOffset" : 12480
        },
        {
            "buffer" : 0,
            "byteLength" : 7200,
            "byteOffset" : 23280
        },
        {
            "buffer" : 0,
            "byteLength" : 3540,
            "byteOffset" : 30480
        },
        {
            "buffer" : 0,
            "byteLength" : 240,
            "byteOffset" : 34020
        },
        {
            "buffer" : 0,
            "byteLength" : 240,
            "byteOffset" : 34260
        },
        {
            "buffer" : 0,
            "byteLength" : 160,
            "byteOffset" : 34500
        },
        {
            "buffer" : 0,
            "byteLength" : 60,
            "byteOffset" : 34660
        },
        {
            "buffer" : 0,
            "byteLength" : 5856,
            "byteOffset" : 34720
        },
        {
            "buffer" : 0,
            "byteLength" : 5856,
            "byteOffset" : 40576
        },
        {
            "buffer" : 0,
            "byteLength" : 3904,
            "byteOffset" : 46432
        },
        {
            "buffer" : 0,
            "byteLength" : 1656,
            "byteOffset" : 50336
        },
        {
            "buffer" : 0,
            "byteLength" : 24624,
            "byteOffset" : 51992
        },
        {
            "buffer" : 0,
            "byteLength" : 24624,
            "byteOffset" : 76616
        },
        {
            "buffer" : 0,
            "byteLength" : 6888,
            "byteOffset" : 101240
        },
        {
            "buffer" : 0,
            "byteLength" : 12048,
            "byteOffset" : 108128
        },
        {
            "buffer" : 0,
            "byteLength" : 12048,
            "byteOffset" : 120176
        },
        {
            "buffer" : 0,
            "byteLength" : 8032,
            "byteOffset" : 132224
        },
        {
            "buffer" : 0,
            "byteLength" : 3456,
            "byteOffset" : 140256
        },
        {
            "buffer" : 0,
            "byteLength" : 23808,
            "byteOffset" : 143712
        },
        {
            "buffer" : 0,
            "byteLength" : 23808,
            "byteOffset" : 167520
        },
        {
            "buffer" : 0,
            "byteLength" : 15872,
            "byteOffset" : 191328
        },
        {
            "buffer" : 0,
            "byteLength" : 6144,
            "byteOffset" : 207200
        },
        {
            "buffer" : 0,
            "byteLength" : 2880,
            "byteOffset" : 213344
        },
        {
            "buffer" : 0,
            "byteLength" : 2880,
            "byteOffset" : 216224
        },
        {
            "buffer" : 0,
            "byteLength" : 1920,
            "byteOffset" : 219104
        },
        {
            "buffer" : 0,
            "byteLength" : 936,
            "byteOffset" : 221024
        },
        {
            "buffer" : 0,
            "byteLength" : 59892,
            "byteOffset" : 221960
        },
        {
            "buffer" : 0,
            "byteLength" : 59892,
            "byteOffset" : 281852
        },
        {
            "buffer" : 0,
            "byteLength" : 18120,
            "byteOffset" : 341744
        },
        {
            "buffer" : 0,
            "byteLength" : 47604,
            "byteOffset" : 359864
        },
        {
            "buffer" : 0,
            "byteLength" : 47604,
            "byteOffset" : 407468
        },
        {
            "buffer" : 0,
            "byteLength" : 9528,
            "byteOffset" : 455072
        }
    ],
    "buffers" : [
        {
            "byteLength" : 464600,
            "uri" : "data:application/octet-stream;base64,"
        }
    ]
}
